<svg width="238" height="300" viewBox="0 0 238 300" fill="none" xmlns="http://www.w3.org/2000/svg">
<path d="M23.8257 54.5453L47.5221 40.9089V13.6364L23.8257 0L0 13.6364V40.9089L23.8257 54.5453Z" transform="translate(0 136.107) scale(2)" fill="#5BCBF0"/>
<path d="M23.8257 54.5453L47.6515 41.0378L47.781 13.6364L23.9552 0L0.129486 13.5077L0 40.9089L23.8257 54.5453Z" transform="translate(47.1348 163.379) scale(2)" fill="#77C696"/>
<path d="M23.8257 54.6739L47.6515 41.0375L47.781 13.765L23.9552 0L0.129486 13.6363L0 40.9089L23.8257 54.6739Z" transform="translate(142.436 163.636) scale(2)" fill="#FCD63C"/>
<path d="M23.8257 54.6739L47.6515 41.1664V13.765L23.9552 0L0.12949 13.6363L0 40.9089L23.8257 54.6739Z" transform="translate(94.7847 190.652) scale(2)" fill="#ED1D69"/>
<path d="M23.6962 54.6739L47.5221 41.1664L47.6515 13.765L23.8257 0L0 13.6364V41.0375L23.6962 54.6739Z" transform="translate(142.697 108.833) scale(2)" fill="#B23566"/>
<path d="M23.8257 54.5453L47.6515 40.9089V13.6364L23.8257 0L0 13.6364V40.9089L23.8257 54.5453Z" transform="translate(47.6523) scale(2)" fill="#FCD63C"/>
<path d="M23.8257 54.5453L47.5221 40.9089V13.6364L23.8257 0L0 13.6364V40.9089L23.8257 54.5453Z" transform="translate(95.3047 27.2725) scale(2)" fill="#77C696"/>
<path d="M23.6962 54.5453L47.5221 40.9089V13.6364L23.6962 0L0 13.6364V40.9089L23.6962 54.5453Z" transform="translate(142.955 54.5449) scale(2)" fill="#5BCBF0"/>
<path d="M23.8257 54.5453L47.5221 40.9089V13.6364L23.8257 0L0 13.6364V40.9089L23.8257 54.5453Z" transform="translate(0 81.5598) scale(2)" fill="#B23566"/>
<path d="M23.8257 54.5453L47.5221 40.9089V13.6364L23.8257 0L0 13.6364V40.9089L23.8257 54.5453Z" transform="translate(0.260742 27.2725) scale(2)" fill="#ED1D69"/>
</svg>
